<svg width="80" height="80" viewBox="0 0 80 80" fill="none" xmlns="http://www.w3.org/2000/svg">
<path d="M65.5664 16.7295C65.546 16.6899 65.5121 16.6588 65.4709 16.642C60.7055 14.4555 55.6766 12.8964 50.5101 12.0037C50.4632 11.995 50.4147 12.0013 50.3715 12.0217C50.3284 12.0421 50.2928 12.0756 50.2698 12.1175C49.585 13.3603 48.9634 14.6369 48.4073 15.9425C42.8381 15.0971 37.1732 15.0971 31.604 15.9425C31.0442 14.6336 30.4126 13.3567 29.7121 12.1175C29.6881 12.0765 29.6523 12.0438 29.6094 12.0235C29.5665 12.0032 29.5185 11.9963 29.4716 12.0037C24.3046 12.8946 19.2754 14.4538 14.5106 16.6421C14.4698 16.6594 14.4354 16.6889 14.4121 16.7266C4.88351 30.9563 2.27326 44.8362 3.55376 58.5442C3.55737 58.5778 3.56769 58.6103 3.58411 58.6399C3.60054 58.6694 3.62274 58.6953 3.64939 58.7161C9.19782 62.8243 15.4038 65.9601 22.0025 67.9897C22.049 68.0036 22.0986 68.003 22.1447 67.9879C22.1908 67.9728 22.2312 67.9439 22.2604 67.9052C23.6776 65.9768 24.9334 63.9348 26.015 61.7999C26.0299 61.7707 26.0384 61.7385 26.0399 61.7057C26.0415 61.6729 26.036 61.6401 26.024 61.6096C26.012 61.579 25.9936 61.5514 25.9701 61.5284C25.9466 61.5055 25.9185 61.4878 25.8876 61.4765C23.9073 60.7187 21.9902 59.8053 20.1541 58.7448C20.1208 58.7252 20.0928 58.6977 20.0726 58.6647C20.0524 58.6317 20.0406 58.5942 20.0383 58.5556C20.0361 58.517 20.0433 58.4784 20.0595 58.4433C20.0756 58.4081 20.1002 58.3775 20.131 58.3541C20.5163 58.0655 20.9018 57.7652 21.2696 57.462C21.3023 57.435 21.3419 57.4178 21.3838 57.4121C21.4258 57.4065 21.4685 57.4126 21.5071 57.43C33.5358 62.9196 46.5584 62.9196 58.4446 57.43C58.4834 57.4115 58.5265 57.4045 58.5691 57.4097C58.6117 57.4148 58.6519 57.4319 58.6851 57.4591C59.0531 57.7623 59.4385 58.0655 59.8266 58.3541C59.8576 58.3772 59.8824 58.4077 59.8988 58.4427C59.9152 58.4777 59.9228 58.5162 59.9208 58.5549C59.9188 58.5935 59.9073 58.631 59.8873 58.6641C59.8674 58.6973 59.8396 58.725 59.8064 58.7448C57.9745 59.8143 56.0556 60.7271 54.0701 61.4736C54.0393 61.4853 54.0113 61.5034 53.9879 61.5267C53.9646 61.55 53.9464 61.578 53.9346 61.6088C53.9228 61.6396 53.9177 61.6726 53.9195 61.7055C53.9213 61.7384 53.93 61.7706 53.9451 61.7999C55.0448 63.9229 56.2988 65.9624 57.6969 67.9018C57.7253 67.9416 57.7654 67.9715 57.8117 67.9872C57.858 68.0029 57.908 68.0036 57.9548 67.9893C64.5653 65.9666 70.7821 62.8305 76.3375 58.7161C76.3646 58.6963 76.3871 58.671 76.4036 58.6419C76.4201 58.6128 76.4302 58.5804 76.4331 58.5471C77.9661 42.6992 73.8666 28.9331 65.5664 16.7295ZM27.8114 50.1974C24.1899 50.1974 21.2059 46.8741 21.2059 42.7926C21.2059 38.7111 24.132 35.3875 27.8114 35.3875C31.5195 35.3875 34.4746 38.74 34.4168 42.7923C34.4168 46.8741 31.4905 50.1974 27.8114 50.1974ZM52.2339 50.1974C48.6125 50.1974 45.6285 46.8741 45.6285 42.7926C45.6285 38.7111 48.5546 35.3875 52.2339 35.3875C55.9423 35.3875 58.8973 38.74 58.8394 42.7923C58.8394 46.8741 55.9423 50.1974 52.2339 50.1974Z" fill="white"/>
</svg>
