<svg width="19" height="18" viewBox="0 0 19 18" fill="none" xmlns="http://www.w3.org/2000/svg">
<path d="M16.9773 6.75H11.8058L10.2343 2.06016C10.157 1.83164 9.94253 1.6875 9.69995 1.6875C9.45737 1.6875 9.24292 1.83164 9.16558 2.06016L7.59409 6.75H2.38745C2.07808 6.75 1.82495 7.00313 1.82495 7.3125C1.82495 7.34414 1.82847 7.3793 1.8355 7.40742C1.84253 7.53047 1.89878 7.66758 2.07104 7.80469L6.32144 10.8L4.69019 15.5426C4.60933 15.7711 4.69019 16.0277 4.88354 16.1754C4.9855 16.2492 5.08042 16.3125 5.19995 16.3125C5.31597 16.3125 5.45308 16.2527 5.55151 16.1859L9.69995 13.2293L13.8484 16.1859C13.9468 16.2562 14.0839 16.3125 14.2 16.3125C14.3195 16.3125 14.4144 16.2527 14.5128 16.1754C14.7097 16.0277 14.7871 15.7746 14.7062 15.5426L13.075 10.8L17.2902 7.77656L17.3921 7.68867C17.4835 7.59023 17.575 7.45664 17.575 7.3125C17.575 7.00313 17.2867 6.75 16.9773 6.75Z" fill="#F6AD55"/>
</svg>
